# xmcd
#
# Track frame offsets: 
#        150
#        13545
#        30292
#        49821
#        63680
#        81564
#        95743
#        112458
#
# Disc length: 1712 seconds
#
# Revision: 0
# Processed by: cddbd v1.5.2PL0 Copyright (c) Steve Scherf et al.
# Submitted via: ExactAudioCopy v1.0b1
#
DISCID=6e06ae08
DTITLE=Próxima Parada - Próxima Parada
DYEAR=2015
DGENRE=Folk/Rock
TTITLE0=Grand Piano
TTITLE1=Young Soul
TTITLE2=Ask For Help
TTITLE3=Skin, The Superior
TTITLE4=Sunshine
TTITLE5=Good News Bad News Blues
TTITLE6=Can't Seem To Climb
TTITLE7=Desert Bloom
EXTD=
EXTT0=
EXTT1=
EXTT2=
EXTT3=
EXTT4=
EXTT5=
EXTT6=
EXTT7=
PLAYORDER=
